<svg width="24" height="24" viewBox="0 0 24 24" fill="none" xmlns="http://www.w3.org/2000/svg">
<g clip-path="url(#clip0_1009_57760)">
<path d="M14.295 23.5844C15.0752 23.5844 15.7555 22.904 15.7555 22.1239V18.7129H16.7307C17.3159 18.7129 17.7059 18.3228 17.7059 17.7377V7.99557H6.0127V17.7378C6.0127 18.3229 6.40278 18.713 6.9879 18.713H7.96319V22.1239C7.96319 22.9041 8.64339 23.5845 9.42371 23.5845C10.2038 23.5845 10.8841 22.9041 10.8841 22.1239V18.713H12.8346V22.1239C12.8345 22.904 13.5148 23.5844 14.295 23.5844Z" fill="#3A2E22"/>
<path d="M20.1412 17.7378C20.9213 17.7378 21.6015 17.0575 21.6015 16.2773V9.45547C21.6015 8.67943 20.9213 7.99557 20.1412 7.99557C19.3609 7.99557 18.6807 8.67943 18.6807 9.45547V16.2773C18.6807 17.0574 19.3609 17.7378 20.1412 17.7378Z" fill="#3A2E22"/>
<path d="M3.57657 17.7378C4.35682 17.7378 5.03709 17.0575 5.03709 16.2773V9.45547C5.03709 8.67943 4.3569 7.99557 3.57657 7.99557C2.79641 7.99557 2.11621 8.67943 2.11621 9.45547V16.2773C2.11621 17.0574 2.79641 17.7378 3.57657 17.7378Z" fill="#3A2E22"/>
<path d="M16.5356 0.398592C16.3407 0.202382 16.0504 0.202382 15.8554 0.398592L14.5474 1.70222L14.4871 1.76248C13.7115 1.37411 12.842 1.18016 11.8736 1.17829C11.8689 1.17829 11.8642 1.17814 11.8594 1.17814H11.8593C11.8544 1.17814 11.8499 1.17829 11.845 1.17829C10.8767 1.18016 10.0071 1.37411 9.23163 1.76248L9.17113 1.70222L7.86322 0.398592C7.6681 0.202382 7.37799 0.202382 7.18302 0.398592C6.9879 0.593712 6.9879 0.883277 7.18302 1.07824L8.44827 2.34372C8.04059 2.61592 7.6709 2.94901 7.34941 3.32998C6.57976 4.24228 6.08884 5.42959 6.02134 6.71601C6.02072 6.7294 6.01939 6.74264 6.01877 6.75603C6.01464 6.84362 6.0127 6.93168 6.0127 7.02005H17.7059C17.7059 6.93168 17.7038 6.84362 17.6999 6.75603C17.6992 6.74264 17.6979 6.7294 17.6971 6.71601C17.6298 5.42959 17.1387 4.2422 16.3691 3.33006C16.0477 2.94909 15.6779 2.616 15.2702 2.3438L16.5356 1.07832C16.7307 0.883277 16.7307 0.593712 16.5356 0.398592ZM9.42184 5.31731C9.01836 5.31731 8.69127 4.99022 8.69127 4.58674C8.69127 4.18326 9.01836 3.85617 9.42184 3.85617C9.82532 3.85617 10.1524 4.18326 10.1524 4.58674C10.1524 4.99022 9.82532 5.31731 9.42184 5.31731ZM14.2968 5.31731C13.8933 5.31731 13.5662 4.99022 13.5662 4.58674C13.5662 4.18326 13.8933 3.85617 14.2968 3.85617C14.7003 3.85617 15.0274 4.18326 15.0274 4.58674C15.0274 4.99022 14.7003 5.31731 14.2968 5.31731Z" fill="#3A2E22"/>
</g>
<defs>
<clipPath id="clip0_1009_57760">
<rect width="23.3333" height="23.3333" fill="white" transform="translate(0.192383 0.251465)"/>
</clipPath>
</defs>
</svg>
