<svg width="45" height="44" viewBox="0 0 45 44" fill="none" xmlns="http://www.w3.org/2000/svg">
<path d="M15.4167 40.3333H30.0833C37.4533 40.3333 38.7733 37.3817 39.1583 33.7883L40.5333 19.1217C41.0283 14.6483 39.745 11 31.9167 11H13.5833C5.75501 11 4.47167 14.6483 4.96667 19.1217L6.34167 33.7883C6.72667 37.3817 8.04667 40.3333 15.4167 40.3333Z" stroke="#978C6B" stroke-width="2" stroke-miterlimit="10" stroke-linecap="round" stroke-linejoin="round"/>
<path d="M15.4165 11.0001V9.53341C15.4165 6.28841 15.4165 3.66675 21.2832 3.66675H24.2165C30.0832 3.66675 30.0832 6.28841 30.0832 9.53341V11.0001" stroke="#978C6B" stroke-width="2" stroke-miterlimit="10" stroke-linecap="round" stroke-linejoin="round"/>
<path d="M26.4168 23.8333V25.6667C26.4168 25.685 26.4168 25.685 26.4168 25.7033C26.4168 27.7017 26.3985 29.3333 22.7502 29.3333C19.1202 29.3333 19.0835 27.72 19.0835 25.7217V23.8333C19.0835 22 19.0835 22 20.9168 22H24.5835C26.4168 22 26.4168 22 26.4168 23.8333Z" stroke="#978C6B" stroke-width="1.5" stroke-miterlimit="10" stroke-linecap="round" stroke-linejoin="round"/>
<path d="M40.4415 20.1667C36.2065 23.2467 31.3665 25.0801 26.4165 25.7034" stroke="#978C6B" stroke-width="1.5" stroke-miterlimit="10" stroke-linecap="round" stroke-linejoin="round"/>
<path d="M5.55322 20.6616C9.67822 23.485 14.3349 25.19 19.0832 25.7216" stroke="#978C6B" stroke-width="1.5" stroke-miterlimit="10" stroke-linecap="round" stroke-linejoin="round"/>
</svg>
