<svg width="18" height="18" viewBox="0 0 18 18" fill="none" xmlns="http://www.w3.org/2000/svg">
<path d="M8.13021 11.3795L6.78125 12.7285C6.49688 13.0129 6.04479 13.0129 5.75313 12.7358C5.67292 12.6556 5.59271 12.5826 5.5125 12.5024C4.76146 11.7441 4.08333 10.9493 3.47813 10.1181C2.88021 9.28681 2.39896 8.45556 2.04896 7.63161C1.70625 6.80036 1.53125 6.00556 1.53125 5.24723C1.53125 4.7514 1.61875 4.27744 1.79375 3.83994C1.96875 3.39515 2.24583 2.98681 2.63229 2.62223C3.09896 2.16286 3.60938 1.93681 4.14896 1.93681C4.35313 1.93681 4.55729 1.98056 4.73958 2.06806C4.92917 2.15556 5.09688 2.28681 5.22813 2.4764L6.91979 4.86077C7.05104 5.04306 7.14583 5.21077 7.21146 5.37119C7.27708 5.52431 7.31354 5.67744 7.31354 5.81598C7.31354 5.99098 7.2625 6.16598 7.16042 6.33369C7.06563 6.5014 6.92708 6.6764 6.75208 6.8514L6.19792 7.42744C6.11771 7.50765 6.08125 7.60244 6.08125 7.71911C6.08125 7.77744 6.08854 7.82848 6.10313 7.88681C6.125 7.94515 6.14688 7.9889 6.16146 8.03265C6.29271 8.27327 6.51875 8.58681 6.83958 8.96598C7.16771 9.34515 7.51771 9.73161 7.89687 10.1181C7.96979 10.191 8.05 10.2639 8.12292 10.3368C8.41458 10.6212 8.42188 11.0879 8.13021 11.3795Z" fill="#3A2E22"/>
<path d="M16.0925 13.8441C16.0925 14.0483 16.0561 14.2597 15.9832 14.4639C15.9613 14.5222 15.9394 14.5806 15.9103 14.6389C15.7863 14.9014 15.6259 15.1493 15.4144 15.3826C15.0571 15.7764 14.6634 16.0608 14.2186 16.2431C14.2113 16.2431 14.204 16.2503 14.1967 16.2503C13.7665 16.4253 13.2998 16.5201 12.7967 16.5201C12.053 16.5201 11.2582 16.3451 10.4196 15.9878C9.58109 15.6306 8.74255 15.1493 7.9113 14.5441C7.62692 14.3326 7.34255 14.1212 7.07275 13.8951L9.45713 11.5108C9.6613 11.6639 9.84359 11.7806 9.99671 11.8608C10.0332 11.8753 10.0769 11.8972 10.128 11.9191C10.1863 11.941 10.2446 11.9483 10.3103 11.9483C10.4342 11.9483 10.529 11.9045 10.6092 11.8243L11.1634 11.2774C11.3457 11.0951 11.5207 10.9566 11.6884 10.8691C11.8561 10.767 12.0238 10.716 12.2061 10.716C12.3446 10.716 12.4905 10.7451 12.6509 10.8108C12.8113 10.8764 12.979 10.9712 13.1613 11.0951L15.5748 12.8087C15.7644 12.9399 15.8957 13.0931 15.9759 13.2753C16.0488 13.4576 16.0925 13.6399 16.0925 13.8441Z" fill="#3A2E22"/>
</svg>
