<svg width="9" height="18" viewBox="0 0 9 18" fill="none" xmlns="http://www.w3.org/2000/svg">
<path d="M5.82471 17.334C5.25505 17.334 4.67969 17.334 4.09863 17.334C3.51758 17.334 2.94222 17.334 2.37256 17.334C2.37256 16.6162 2.37256 15.8927 2.37256 15.1636C2.37256 14.4458 2.37256 13.7223 2.37256 12.9932C2.37256 12.264 2.37256 11.5291 2.37256 10.7886C2.37256 10.0594 2.37256 9.32454 2.37256 8.58398C2.05355 8.58398 1.74308 8.58398 1.44116 8.58398C1.13924 8.58398 0.840169 8.58398 0.543945 8.58398C0.543945 8.08268 0.543945 7.58992 0.543945 7.10571C0.543945 6.6215 0.543945 6.12305 0.543945 5.61035C0.851562 5.61035 1.15348 5.61035 1.44971 5.61035C1.74593 5.61035 2.05355 5.61035 2.37256 5.61035C2.37256 5.14323 2.36971 4.67896 2.36401 4.21753C2.35832 3.7561 2.36117 3.30322 2.37256 2.85889C2.38395 2.1639 2.57479 1.58 2.94507 1.10718C3.31535 0.634359 3.83089 0.306803 4.4917 0.124512C4.8221 0.0333652 5.14396 -0.020752 5.45728 -0.0378418C5.77059 -0.0549316 6.09814 -0.0634766 6.43994 -0.0634766C6.51969 -0.0634766 6.88997 -0.0634766 7.55078 -0.0634766C8.21159 -0.0634766 8.54199 -0.0634766 8.54199 -0.0634766C8.54199 0.437826 8.54199 0.941977 8.54199 1.44897C8.54199 1.95597 8.54199 2.47152 8.54199 2.99561C8.2002 2.99561 7.86694 2.99561 7.54224 2.99561C7.21753 2.99561 6.88997 2.99561 6.55957 2.99561C6.41146 2.99561 6.26904 3.02409 6.13232 3.08105C5.99561 3.13802 5.92155 3.24626 5.91016 3.40576C5.88737 3.77034 5.87882 4.13778 5.88452 4.50806C5.89022 4.87834 5.89307 5.25146 5.89307 5.62744C6.32601 5.62744 6.76465 5.62744 7.20898 5.62744C7.65332 5.62744 8.09766 5.62744 8.54199 5.62744C8.50781 6.12874 8.46794 6.6215 8.42236 7.10571C8.37679 7.58992 8.33122 8.07699 8.28564 8.56689C7.87549 8.56689 7.46818 8.56689 7.06372 8.56689C6.65926 8.56689 6.25195 8.56689 5.8418 8.56689C5.8418 8.65804 5.8418 8.73779 5.8418 8.80615C5.8418 8.87451 5.8418 8.94287 5.8418 9.01123C5.8418 9.70622 5.8361 10.4012 5.82471 11.0962C5.82471 11.7912 5.82471 12.4862 5.82471 13.1812C5.82471 13.8761 5.82471 14.5711 5.82471 15.2661C5.82471 15.9611 5.82471 16.6504 5.82471 17.334Z" fill="#3A2E22"/>
</svg>
