<svg width="24" height="25" viewBox="0 0 24 25" fill="none" xmlns="http://www.w3.org/2000/svg">
<g clip-path="url(#clip0_1009_57751)">
<path d="M16.234 0.772278C14.9901 0.858319 13.5362 1.65456 12.6889 2.69143C11.916 3.63205 11.2801 5.02913 11.5281 6.38683C12.8872 6.42912 14.2916 5.61392 15.1053 4.55955C15.8665 3.57809 16.4426 2.18977 16.234 0.772278Z" fill="#3A2E22"/>
<path d="M21.1507 8.60009C19.9563 7.10238 18.2778 6.23322 16.6926 6.23322C14.5999 6.23322 13.7147 7.23509 12.2607 7.23509C10.7616 7.23509 9.62262 6.23613 7.81284 6.23613C6.03514 6.23613 4.14224 7.32259 2.94204 9.1805C1.25476 11.7967 1.5435 16.7157 4.27786 20.9055C5.2564 22.4046 6.56306 24.0905 8.27221 24.1051C9.79325 24.1196 10.222 23.1294 12.2826 23.1192C14.3432 23.1076 14.7341 24.1182 16.2522 24.1021C17.9628 24.089 19.3409 22.2209 20.3194 20.7217C21.0209 19.6469 21.2819 19.1059 21.8259 17.8926C17.8695 16.3861 17.2351 10.7599 21.1507 8.60009Z" fill="#3A2E22"/>
</g>
<defs>
<clipPath id="clip0_1009_57751">
<rect width="23.3333" height="23.3333" fill="white" transform="translate(0.192383 0.772278)"/>
</clipPath>
</defs>
</svg>
