<svg width="45" height="44" viewBox="0 0 45 44" fill="none" xmlns="http://www.w3.org/2000/svg">
<path d="M17.9165 25.2083C17.9165 26.9866 19.2915 28.4166 20.9782 28.4166H24.4248C25.8915 28.4166 27.0832 27.1699 27.0832 25.6116C27.0832 23.9433 26.3499 23.3383 25.2682 22.9533L19.7498 21.0283C18.6682 20.6433 17.9349 20.0566 17.9349 18.3699C17.9349 16.8299 19.1265 15.5649 20.5932 15.5649H24.0398C25.7265 15.5649 27.1015 16.9949 27.1015 18.7733" stroke="#978C6B" stroke-width="2" stroke-linecap="round" stroke-linejoin="round"/>
<path d="M22.5 13.75V30.25" stroke="#978C6B" stroke-width="2" stroke-linecap="round" stroke-linejoin="round"/>
<path d="M40.8332 22.0001C40.8332 32.1201 32.6198 40.3334 22.4998 40.3334C12.3798 40.3334 4.1665 32.1201 4.1665 22.0001C4.1665 11.8801 12.3798 3.66675 22.4998 3.66675" stroke="#978C6B" stroke-width="2" stroke-linecap="round" stroke-linejoin="round"/>
<path d="M40.8333 11.0001V3.66675H33.5" stroke="#978C6B" stroke-width="2" stroke-linecap="round" stroke-linejoin="round"/>
<path d="M31.6665 12.8334L40.8332 3.66675" stroke="#978C6B" stroke-width="2" stroke-linecap="round" stroke-linejoin="round"/>
</svg>
