<svg width="18" height="18" viewBox="0 0 18 18" fill="none" xmlns="http://www.w3.org/2000/svg">
<path d="M12.396 3.03056H5.10433C2.91683 3.03056 1.4585 4.12431 1.4585 6.6764V11.7806C1.4585 14.3326 2.91683 15.4264 5.10433 15.4264H12.396C14.5835 15.4264 16.0418 14.3326 16.0418 11.7806V6.6764C16.0418 4.12431 14.5835 3.03056 12.396 3.03056ZM12.7387 7.47119L10.4564 9.29411C9.97516 9.68056 9.36266 9.87015 8.75016 9.87015C8.13766 9.87015 7.51787 9.68056 7.04391 9.29411L4.76162 7.47119C4.52829 7.28161 4.49183 6.9316 4.67412 6.69827C4.8637 6.46494 5.20641 6.42119 5.43975 6.61077L7.72204 8.43369C8.2762 8.87848 9.21683 8.87848 9.771 8.43369L12.0533 6.61077C12.2866 6.42119 12.6366 6.45765 12.8189 6.69827C13.0085 6.9316 12.972 7.28161 12.7387 7.47119Z" fill="#3A2E22"/>
</svg>
