<svg width="56" height="56" viewBox="0 0 56 56" fill="none" xmlns="http://www.w3.org/2000/svg">
<path d="M35.9097 12.1567L39.1997 18.7367C39.643 19.6467 40.833 20.51 41.8364 20.6967L47.7864 21.6767C51.5897 22.3067 52.4764 25.06 49.7464 27.8133L45.103 32.4567C44.333 33.2267 43.8897 34.7433 44.1464 35.84L45.4764 41.58C46.5264 46.1067 44.0997 47.88 40.1097 45.5L34.533 42.1867C33.5297 41.58 31.8497 41.58 30.8464 42.1867L25.2697 45.5C21.2797 47.8567 18.853 46.1067 19.903 41.58L21.233 35.84C21.443 34.72 20.9997 33.2033 20.2297 32.4333L15.5864 27.79C12.8564 25.06 13.743 22.3067 17.5464 21.6533L23.4964 20.6733C24.4997 20.51 25.6897 19.6233 26.133 18.7133L29.423 12.1333C31.2197 8.58668 34.113 8.58668 35.9097 12.1567Z" fill="#978C6B"/>
<path d="M18.6665 13.4166H4.6665C3.70984 13.4166 2.9165 12.6233 2.9165 11.6666C2.9165 10.71 3.70984 9.91663 4.6665 9.91663H18.6665C19.6232 9.91663 20.4165 10.71 20.4165 11.6666C20.4165 12.6233 19.6232 13.4166 18.6665 13.4166Z" fill="#978C6B"/>
<path d="M11.6665 46.0834H4.6665C3.70984 46.0834 2.9165 45.29 2.9165 44.3334C2.9165 43.3767 3.70984 42.5834 4.6665 42.5834H11.6665C12.6232 42.5834 13.4165 43.3767 13.4165 44.3334C13.4165 45.29 12.6232 46.0834 11.6665 46.0834Z" fill="#978C6B"/>
<path d="M6.99984 29.75H4.6665C3.70984 29.75 2.9165 28.9567 2.9165 28C2.9165 27.0433 3.70984 26.25 4.6665 26.25H6.99984C7.9565 26.25 8.74984 27.0433 8.74984 28C8.74984 28.9567 7.9565 29.75 6.99984 29.75Z" fill="#978C6B"/>
</svg>
