<svg width="18" height="18" viewBox="0 0 18 18" fill="none" xmlns="http://www.w3.org/2000/svg">
<path d="M8.7501 3.86911C5.26468 3.86911 2.42822 6.70557 2.42822 10.191C2.42822 13.6764 5.26468 16.5202 8.7501 16.5202C12.2355 16.5202 15.072 13.6837 15.072 10.1983C15.072 6.71286 12.2355 3.86911 8.7501 3.86911ZM9.29697 9.95765C9.29697 10.2566 9.04906 10.5045 8.7501 10.5045C8.45114 10.5045 8.20322 10.2566 8.20322 9.95765V6.31182C8.20322 6.01286 8.45114 5.76494 8.7501 5.76494C9.04906 5.76494 9.29697 6.01286 9.29697 6.31182V9.95765Z" fill="#3A2E22"/>
<path d="M10.8573 2.99411H6.64268C6.35101 2.99411 6.11768 2.76077 6.11768 2.46911C6.11768 2.17744 6.35101 1.93681 6.64268 1.93681H10.8573C11.1489 1.93681 11.3823 2.17015 11.3823 2.46181C11.3823 2.75348 11.1489 2.99411 10.8573 2.99411Z" fill="#3A2E22"/>
</svg>
