<svg width="18" height="15" viewBox="0 0 18 15" fill="none" xmlns="http://www.w3.org/2000/svg">
<path d="M6.66895 14.7441C6.45247 14.7441 6.236 14.7441 6.01953 14.7441C5.80306 14.7441 5.58659 14.7441 5.37012 14.7441C5.33594 14.7441 5.29891 14.7384 5.25903 14.7271C5.21916 14.7157 5.18213 14.71 5.14795 14.71C4.56689 14.6644 3.99723 14.5704 3.43896 14.428C2.8807 14.2856 2.33382 14.089 1.79834 13.8384C1.58187 13.7472 1.37109 13.6447 1.16602 13.5308C0.960938 13.4168 0.755859 13.3029 0.550781 13.189C0.550781 13.1776 0.55363 13.1662 0.559326 13.1548C0.565023 13.1434 0.567871 13.1377 0.567871 13.1377C1.0236 13.1947 1.48218 13.2004 1.9436 13.1548C2.40503 13.1092 2.85791 13.0295 3.30225 12.9155C3.74658 12.7902 4.17383 12.625 4.58398 12.4199C4.99414 12.2148 5.38721 11.9642 5.76318 11.668C4.95426 11.5882 4.23079 11.3062 3.59277 10.822C2.95475 10.3378 2.58447 9.78809 2.48193 9.17285C2.73258 9.19564 2.98039 9.20988 3.22534 9.21558C3.4703 9.22127 3.7238 9.18424 3.98584 9.10449C3.06299 8.7627 2.34806 8.26424 1.84106 7.60913C1.33407 6.95402 1.12614 6.26188 1.21729 5.53271C1.45654 5.64665 1.7015 5.74349 1.95215 5.82324C2.2028 5.903 2.47624 5.94857 2.77246 5.95996C2.38509 5.66374 2.06893 5.33618 1.82397 4.97729C1.57902 4.61841 1.41097 4.2168 1.31982 3.77246C1.21729 3.31673 1.19735 2.87524 1.26001 2.448C1.32267 2.02075 1.47363 1.59635 1.71289 1.1748C2.19141 1.74447 2.7098 2.25146 3.26807 2.6958C3.81494 3.14014 4.396 3.51896 5.01123 3.83228C5.62646 4.14559 6.27018 4.39339 6.94238 4.57568C7.62598 4.75798 8.33805 4.8776 9.07861 4.93457C9.07861 4.90039 9.08146 4.8776 9.08716 4.86621C9.09285 4.85482 9.09001 4.83773 9.07861 4.81494C8.9305 4.02881 9.0245 3.27686 9.3606 2.55908C9.6967 1.84131 10.2236 1.30013 10.9414 0.935547C11.1351 0.833008 11.3459 0.756104 11.5737 0.704834C11.8016 0.653564 12.0238 0.59375 12.2402 0.525391C12.3656 0.525391 12.4937 0.525391 12.6248 0.525391C12.7558 0.525391 12.884 0.525391 13.0093 0.525391C13.0207 0.525391 13.0349 0.528239 13.052 0.533936C13.0691 0.539632 13.0833 0.548177 13.0947 0.55957C13.4821 0.605144 13.8438 0.71053 14.1799 0.875732C14.516 1.04093 14.8265 1.26595 15.1113 1.55078C15.1683 1.59635 15.2224 1.61914 15.2737 1.61914C15.325 1.61914 15.3791 1.61344 15.436 1.60205C15.7664 1.5223 16.0883 1.42261 16.4016 1.30298C16.7149 1.18335 17.0254 1.04378 17.333 0.884277C17.3558 0.872884 17.3786 0.861491 17.4014 0.850098C17.4242 0.838704 17.4526 0.827312 17.4868 0.815918C17.4982 0.815918 17.5068 0.821614 17.5125 0.833008C17.5181 0.844401 17.5267 0.855794 17.5381 0.867188C17.4355 1.03809 17.3359 1.21183 17.239 1.38843C17.1422 1.56502 17.0368 1.73307 16.9229 1.89258C16.7975 2.04069 16.6608 2.18595 16.5127 2.32837C16.3646 2.47078 16.2165 2.61035 16.0684 2.74707C16.0684 2.75846 16.0684 2.76701 16.0684 2.77271C16.0684 2.7784 16.0684 2.78695 16.0684 2.79834C16.376 2.70719 16.6893 2.6189 17.0083 2.53345C17.3273 2.448 17.6406 2.3597 17.9482 2.26855C17.9368 2.30273 17.9169 2.33691 17.8884 2.37109C17.8599 2.40527 17.8343 2.43945 17.8115 2.47363C17.5951 2.75846 17.3643 3.0262 17.1194 3.27686C16.8744 3.52751 16.6152 3.76107 16.3418 3.97754C16.3076 4.00033 16.2791 4.0345 16.2563 4.08008C16.2336 4.12565 16.2222 4.17122 16.2222 4.2168C16.1994 4.50163 16.1823 4.78931 16.1709 5.07983C16.1595 5.37036 16.1367 5.65804 16.1025 5.94287C16.0114 6.55811 15.8747 7.15055 15.6924 7.72021C15.5215 8.28988 15.2993 8.8339 15.0259 9.35229C14.7524 9.87069 14.4334 10.3634 14.0688 10.8306C13.7043 11.3091 13.2941 11.7591 12.8384 12.1807C12.1776 12.7959 11.457 13.3 10.6765 13.6931C9.89608 14.0862 9.06152 14.3682 8.17285 14.5391C7.9222 14.5846 7.67155 14.6217 7.4209 14.6501C7.17025 14.6786 6.9196 14.71 6.66895 14.7441Z" fill="#3A2E22"/>
</svg>
