<svg width="18" height="13" viewBox="0 0 18 13" fill="none" xmlns="http://www.w3.org/2000/svg">
<path d="M0.134277 8.2085C0.134277 7.68441 0.134277 7.16032 0.134277 6.63623C0.134277 6.11214 0.134277 5.58805 0.134277 5.06396C0.168457 4.74495 0.199788 4.4174 0.228271 4.0813C0.256755 3.7452 0.293783 3.41195 0.339355 3.08154C0.430501 2.3068 0.669759 1.73429 1.05713 1.36401C1.4445 0.993733 2.02555 0.78011 2.80029 0.723145C3.27881 0.688965 3.75732 0.660481 4.23584 0.637695C4.71436 0.614909 5.19287 0.592122 5.67139 0.569336C5.80811 0.557942 5.93913 0.549397 6.06445 0.543701C6.18978 0.538005 6.3208 0.52946 6.45752 0.518066C7.24365 0.518066 8.03548 0.518066 8.83301 0.518066C9.63053 0.518066 10.4224 0.518066 11.2085 0.518066C11.2882 0.518066 11.3623 0.523763 11.4307 0.535156C11.499 0.54655 11.5731 0.557942 11.6528 0.569336C12.2111 0.592122 12.7665 0.614909 13.3191 0.637695C13.8717 0.660481 14.4214 0.688965 14.9683 0.723145C15.5721 0.757324 16.0535 0.911133 16.4124 1.18457C16.7712 1.45801 17.0247 1.86247 17.1729 2.39795C17.2298 2.60303 17.2754 2.81095 17.3096 3.02173C17.3438 3.2325 17.3722 3.44613 17.395 3.6626C17.4292 3.90186 17.4577 4.13826 17.4805 4.37183C17.5033 4.60539 17.5203 4.8418 17.5317 5.08105C17.5317 5.60514 17.5317 6.12638 17.5317 6.64478C17.5317 7.16317 17.5317 7.68441 17.5317 8.2085C17.4976 8.5389 17.4662 8.8693 17.4377 9.19971C17.4093 9.53011 17.3722 9.86051 17.3267 10.1909C17.2355 10.9771 16.9963 11.5553 16.6089 11.9255C16.2215 12.2958 15.6405 12.5094 14.8657 12.5664C14.3872 12.6006 13.9087 12.6291 13.4302 12.6519C12.9517 12.6746 12.4731 12.6974 11.9946 12.7202C11.8579 12.7316 11.7269 12.7402 11.6016 12.7458C11.4762 12.7515 11.3452 12.7601 11.2085 12.7715C10.4224 12.7715 9.63053 12.7715 8.83301 12.7715C8.03548 12.7715 7.24365 12.7715 6.45752 12.7715C6.37777 12.7715 6.30371 12.7658 6.23535 12.7544C6.16699 12.743 6.09294 12.7316 6.01318 12.7202C5.45492 12.6974 4.8995 12.6746 4.34692 12.6519C3.79435 12.6291 3.24463 12.6006 2.69775 12.5664C2.09391 12.5208 1.61255 12.3613 1.25366 12.0879C0.894775 11.8145 0.641276 11.41 0.493164 10.8745C0.436198 10.6694 0.390625 10.4615 0.356445 10.2507C0.322266 10.04 0.288086 9.82633 0.253906 9.60986C0.23112 9.382 0.208333 9.14844 0.185547 8.90918C0.16276 8.66992 0.145671 8.43636 0.134277 8.2085ZM7.14111 4.22656C7.14111 5.04688 7.14111 5.85295 7.14111 6.64478C7.14111 7.4366 7.14111 8.23698 7.14111 9.0459C7.91585 8.63574 8.68205 8.23413 9.4397 7.84106C10.1973 7.448 10.9692 7.04639 11.7554 6.63623C10.9692 6.22607 10.1945 5.82446 9.43115 5.4314C8.66781 5.03833 7.90446 4.63672 7.14111 4.22656Z" fill="#3A2E22"/>
</svg>
